<svg width="1027" height="669" viewBox="0 0 1027 669" fill="none" xmlns="http://www.w3.org/2000/svg">
<path d="M158.905 58.1622C172.449 53.3992 187.869 46.8015 201.825 44.1868C210.062 42.6435 214.772 44.1146 218.891 51.7188C234.51 99.1255 255.081 146.514 269.354 194.275C272.369 204.371 275.138 214.279 264.366 220.573C206.949 241.87 148.444 260.948 90.7633 281.386C77.0653 286.242 63.9162 291.382 56.8598 274.78C49.8033 258.178 45.3486 237.473 37.4853 220.309C29.6777 190.114 14.6712 159.996 6.70897 130.089C2.04506 112.58 15.7848 109.751 28.9269 104.521C70.8151 87.8381 116.185 73.1943 158.907 58.1666L158.905 58.1622ZM219.222 70.8917L214.147 56.2513C213.867 55.4428 210.941 51.6891 210.121 51.0625C206.14 48.0074 197.486 51.7804 193.179 53.0136C174.884 58.2632 157.49 65.7167 139.611 72.0701C103.553 84.8814 67.0795 96.5933 31.5317 110.51C26.5625 112.458 16.7396 115.006 13.5734 119.246C12.3165 120.93 11.5665 124.289 12.2406 126.233L17.618 141.748L75.5476 121.689C110.549 107.295 146.829 95.6898 182.718 83.5635C194.919 79.4426 207.027 75.0155 219.222 70.8917ZM221.746 76.919C220.759 77.036 219.772 77.1136 218.797 77.3783C206.57 80.7009 193.392 86.3504 181.19 90.4523C131.32 107.214 81.8595 124.886 32.653 143.405C28.3964 145.007 23.9939 146.274 19.7313 147.859C20.6185 149.642 20.6256 151.597 21.1642 153.462C32.3746 192.415 49.892 231.204 61.622 270.187C64.9072 277.914 67.9389 281.675 76.8006 279.363C100.748 273.118 125.34 260.982 149.37 254.17C173.513 246.782 197.074 237.504 221.042 229.328C232.849 225.3 245.473 222.246 257.039 217.385C263.145 214.819 267.023 212.461 265.736 205.246C264.49 198.276 260.787 188.384 258.512 181.384C253.461 165.835 247.365 150.564 241.984 135.222C235.172 115.809 228.641 96.2888 221.74 76.9161L221.746 76.919Z" fill="#2159D1"/>
<path d="M221.746 76.919C228.643 96.2932 235.178 115.812 241.99 135.225C247.375 150.566 253.471 165.836 258.518 181.387C260.791 188.382 264.496 198.279 265.742 205.249C267.028 212.464 263.152 214.826 257.045 217.388C245.478 222.249 232.855 225.303 221.048 229.331C197.08 237.507 173.519 246.784 149.376 254.173C125.343 260.991 100.754 273.121 76.8065 279.366C67.9448 281.678 64.9131 277.917 61.6279 270.19C49.8979 231.207 32.3761 192.419 21.1701 153.465C20.6315 151.6 20.6287 149.643 19.7372 147.862C23.994 146.274 28.4008 145.006 32.6589 143.408C81.8654 124.889 131.326 107.217 181.196 90.4552C193.398 86.3532 206.574 80.6994 218.803 77.3811C219.778 77.1165 220.765 77.0389 221.752 76.9219L221.746 76.919ZM91.9961 139.118C45.1 160.277 50.4425 227.072 97.4703 244.271C116.278 251.15 142.476 243.984 156.598 230.082C198.775 188.573 148.971 113.408 91.9902 139.115L91.9961 139.118ZM208.746 106.342L161.11 122.853C159.379 123.453 162.319 128.671 163.95 128.237C177.422 123.788 190.684 118.663 204.171 114.272C206.04 113.663 211.958 113.11 212.609 111.034C213.467 108.284 211.607 105.953 208.747 106.347L208.746 106.342ZM173.51 142.684L171.139 144.078C170.583 146.513 172.881 148.708 175.326 148.247C185.878 144.825 196.244 140.791 206.786 137.353C209.104 136.598 219.136 135.231 218.271 131.663C217.964 130.394 215.445 128.296 213.974 128.531L173.506 142.685L173.51 142.684ZM181.317 163.921C179.096 167.471 183.009 169.664 186.373 168.934C198.523 166.294 212.076 158.816 224.412 155.749C229.056 153.077 226.145 148.887 221.411 149.916L181.317 163.921Z" fill="#FFFBB9"/>
<path d="M219.222 70.8917C207.027 75.0155 194.919 79.4426 182.718 83.5635C146.829 95.6898 110.549 107.296 75.5476 121.689L17.618 141.748L12.2406 126.233C11.5665 124.289 12.3165 120.93 13.5734 119.246C16.7411 115.01 26.5625 112.458 31.5317 110.51C67.0795 96.5933 103.553 84.8814 139.611 72.0701C157.485 65.7182 174.884 58.2632 193.179 53.0136C197.484 51.7761 206.14 48.0074 210.121 51.0625C210.942 51.6934 213.867 55.4428 214.147 56.2513L219.222 70.8917ZM27.0741 120.049C21.2855 122.105 24.8751 130.583 29.4149 129.797C37.3282 128.42 34.1794 117.528 27.0741 120.049ZM43.5686 117.26C41.2405 122.35 49.1284 125.603 53.2959 121.794C58.2272 117.28 52.3931 111.45 47.0716 114.033C45.9401 114.582 44.0934 116.118 43.5686 117.26ZM65.5387 108.108C59.5481 111.868 67.4553 121.419 72.328 114.674C75.8464 109.797 70.8586 104.771 65.5387 108.108Z" fill="#FFFBB9"/>
<path d="M91.9961 139.118C148.976 113.41 198.775 188.573 156.603 230.085C142.48 243.982 116.283 251.149 97.4761 244.274C50.444 227.077 45.1059 160.28 92.002 139.121L91.9961 139.118ZM104.603 141.538C102.558 142.643 94.7686 143.346 93.9241 145.146C93.5831 145.872 93.9741 147.381 93.7514 148.334C93.3894 149.874 92.3994 151.623 92.0084 153.305C90.789 158.515 90.1214 163.877 90.7954 169.253C101.15 166.771 111.306 164.646 120.513 158.953L104.609 141.541L104.603 141.538ZM139.23 146.586C139.509 145.922 133.942 143.406 133.12 143.069C126.634 140.427 118.463 138.986 111.507 140.046L125.463 156.229C130.738 154.004 134.774 149.986 139.228 146.582L139.23 146.586ZM86.7497 149.121C78.3293 154.84 70.6986 162.752 68.0119 172.74C73.5768 171.932 79.6495 173.097 84.7545 170.143C84.6141 163.015 85.2965 156.072 86.7497 149.121ZM138.018 179.81L160.961 171.857C161.123 171.801 161.417 171.053 161.905 171.036C157.977 162.568 152.294 154.874 144.437 149.745L129.197 161.352L138.018 179.81ZM65.3258 198.886C65.8407 201.106 67.0838 203.422 67.6736 205.66L90.0667 196.895L85.1079 176.854C84.857 175.933 84.911 176.286 84.2339 176.423C82.2069 176.832 80.278 177.608 78.0337 177.94C76.2362 178.206 65.8094 178.56 65.3815 179.105C65.3051 185.226 63.9366 192.901 65.3229 198.892L65.3258 198.886ZM124.34 164.543C117.79 166.971 111.337 169.765 104.633 171.82C102.703 172.41 91.0546 174.818 90.6045 175.708C91.6336 182.293 93.3834 188.711 95.7774 194.94L132.341 181.778C130.347 175.757 127.835 169.823 124.339 164.539L124.34 164.543ZM163.435 176.875L140.016 185.506L144.063 205.823C150.78 205.629 157.472 205.812 164.006 207.448C165.633 202.65 166.552 197.451 166.489 192.352C166.461 190.296 166.215 184.909 165.625 183.209L163.429 176.872L163.435 176.875ZM101.351 220.907C99.5258 217.873 97.0798 214.53 95.6447 211.322C94.952 209.775 93.118 203.043 92.1582 202.774L69.64 211.347C73.2976 219.64 79.0481 227.178 86.651 232.165C89.6055 230.181 91.9064 227.103 94.8799 224.863C96.9008 223.335 99.0272 221.942 101.352 220.911L101.351 220.907ZM134.894 187.746L97.7466 200.622C99.3693 206.687 102.853 211.907 105.557 217.491C113.379 214.398 120.979 210.731 129.083 208.338C130.611 207.887 138.019 206.89 138.295 205.864L134.894 187.746ZM138.4 211.986C128.238 214.486 118.355 217.284 109.34 222.798C112.816 227.164 117.402 233.064 122.228 235.944C122.876 236.331 128.891 238.163 129.495 238.198C131.842 238.33 134.333 236.575 136.287 235.408C136.882 232.476 140.154 212.852 138.4 211.986ZM117.968 240.603L104.561 225.874C99.838 227.883 95.8914 231.566 92.017 234.921C91.8029 235.617 96.6927 237.804 97.532 238.15C103.618 240.652 111.466 241.926 117.968 240.603ZM142.749 232.992C150.998 228.758 156.755 221.285 161.453 213.542C156.348 211.297 150.218 211.126 144.727 211.766L142.755 232.995L142.749 232.992Z" fill="#2159D1"/>
<path d="M208.746 106.342C211.607 105.953 213.466 108.28 212.608 111.03C211.958 113.11 206.039 113.659 204.169 114.268C190.682 118.659 177.418 123.79 163.949 128.233C162.317 128.666 159.378 123.449 161.108 122.849L208.744 106.338L208.746 106.342Z" fill="#2159D1"/>
<path d="M181.316 163.921L221.411 149.916C226.145 148.887 229.058 153.082 224.412 155.749C212.078 158.82 198.523 166.294 186.373 168.934C183.008 169.664 179.096 167.471 181.316 163.921Z" fill="#2159D1"/>
<path d="M173.51 142.684L213.979 128.53C215.445 128.296 217.968 130.393 218.276 131.662C219.142 135.234 209.109 136.597 206.79 137.351C196.244 140.791 185.883 144.823 175.33 148.246C172.886 148.706 170.588 146.512 171.144 144.077L173.515 142.682L173.51 142.684Z" fill="#2159D1"/>
<path d="M43.5686 117.26C44.089 116.12 45.9401 114.582 47.0716 114.033C52.3931 111.45 58.2272 117.28 53.2958 121.794C49.1343 125.606 41.2405 122.35 43.5686 117.26Z" fill="#2159D1"/>
<path d="M27.074 120.049C34.1794 117.528 37.3282 128.42 29.4149 129.797C24.8766 130.587 21.2855 122.105 27.074 120.049Z" fill="#2159D1"/>
<path d="M65.5386 108.108C70.8629 104.769 75.8464 109.797 72.3279 114.674C67.4568 121.424 59.548 111.868 65.5386 108.108Z" fill="#2159D1"/>
<path d="M124.34 164.543C127.835 169.823 130.348 175.762 132.342 181.782L95.7789 194.944C93.3849 188.715 91.6336 182.293 90.606 175.712C91.0561 174.822 102.705 172.415 104.634 171.824C111.339 169.769 117.791 166.975 124.342 164.548L124.34 164.543Z" fill="#FFFBB9"/>
<path d="M134.894 187.746L138.295 205.864C138.024 206.889 130.611 207.887 129.083 208.338C120.979 210.731 113.384 214.396 105.557 217.491C102.853 211.907 99.3694 206.687 97.7467 200.622L134.894 187.746Z" fill="#FFFBB9"/>
<path d="M163.435 176.875L165.631 183.211C166.22 184.911 166.467 190.299 166.495 192.355C166.558 197.454 165.639 202.653 164.012 207.451C157.477 205.815 150.782 205.634 144.068 205.826L140.022 185.508L163.441 176.877L163.435 176.875Z" fill="#FFFBB9"/>
<path d="M138.018 179.81L129.197 161.352L144.437 149.745C152.29 154.875 157.977 162.568 161.905 171.036C161.421 171.052 161.123 171.801 160.961 171.857L138.018 179.81Z" fill="#FFFBB9"/>
<path d="M65.3258 198.886C63.9351 192.897 65.3036 185.221 65.3844 179.099C65.8138 178.558 76.2406 178.205 78.0366 177.935C80.2809 177.602 82.2098 176.826 84.2367 176.417C84.9138 176.28 84.8599 175.927 85.1107 176.848L90.0695 196.889L67.6765 205.654C67.0867 203.416 65.8436 201.101 65.3286 198.88L65.3258 198.886Z" fill="#FFFBB9"/>
<path d="M101.351 220.907C99.0256 221.938 96.8992 223.331 94.8783 224.859C91.9048 227.098 89.6099 230.18 86.6494 232.161C79.0451 227.169 73.296 219.636 69.6384 211.343L92.1566 202.77C93.1121 203.04 94.9519 209.775 95.6431 211.317C97.0783 214.526 99.5243 217.868 101.349 220.902L101.351 220.907Z" fill="#FFFBB9"/>
<path d="M104.603 141.538L120.507 158.95C111.301 164.647 101.144 166.768 90.7895 169.25C90.1214 163.877 90.7831 158.512 92.0025 153.302C92.3935 151.62 93.3835 149.872 93.7455 148.331C93.9682 147.378 93.5772 145.869 93.9182 145.143C94.7627 143.343 102.552 142.64 104.597 141.535L104.603 141.538Z" fill="#FFFBB9"/>
<path d="M138.4 211.986C140.154 212.852 136.883 232.48 136.288 235.408C134.333 236.575 131.842 238.33 129.495 238.198C128.891 238.163 122.876 236.331 122.228 235.944C117.406 233.063 112.814 227.16 109.34 222.798C118.355 217.284 128.233 214.487 138.4 211.986Z" fill="#FFFBB9"/>
<path d="M139.23 146.586C134.78 149.989 130.743 154.007 125.464 156.233L111.509 140.05C118.465 138.99 126.635 140.432 133.122 143.074C133.942 143.406 139.51 145.926 139.231 146.591L139.23 146.586Z" fill="#FFFBB9"/>
<path d="M86.7497 149.121C85.2965 156.072 84.6185 163.014 84.7545 170.143C79.6495 173.097 73.5769 171.932 68.0119 172.74C70.6986 162.752 78.3293 154.84 86.7497 149.121Z" fill="#FFFBB9"/>
<path d="M142.749 232.992L144.721 211.763C150.217 211.122 156.343 211.299 161.447 213.539C156.749 221.282 150.992 228.755 142.743 232.99L142.749 232.992Z" fill="#FFFBB9"/>
<path d="M117.968 240.603C111.466 241.926 103.618 240.652 97.532 238.15C96.6926 237.804 91.7985 235.619 92.017 234.921C95.8914 231.566 99.838 227.883 104.561 225.874L117.968 240.603Z" fill="#FFFBB9"/>
<path d="M127.573 546.618C128.742 545.638 130.055 538.703 130.689 536.802C138.496 513.47 147.518 490.285 156.198 467.325C159.296 459.13 164.809 438.419 171.471 433.75C178.377 428.909 188.885 433.011 195.997 435.159C234.507 446.794 275.893 462.761 313.499 477.419C321.975 480.721 330.431 482.876 337.971 488.304C344.909 493.3 343.955 499.494 341.541 506.868C340.67 509.524 339.269 511.724 338.402 514.096C326.494 546.718 315.228 579.581 302.355 611.743C302.157 613.004 303.893 615.476 304.321 616.966C305.796 622.092 310.223 644.071 309.967 648.653C309.347 659.882 302.086 667.024 290.75 663.883C280.46 661.035 270.409 656.124 260.45 652.461C209.271 633.628 157.547 615.464 106.991 595.335C96.6072 591.2 81.9717 588.898 86.3786 573.958C87.9213 568.722 90.0695 566.383 94.548 563.619C102.81 558.518 115.409 551.457 124.166 547.443C125.019 547.052 127.438 546.737 127.576 546.624L127.573 546.618ZM297.545 607.32C301.808 598.182 304.658 588.393 308.219 578.939C317.215 555.046 329.113 528.795 336.034 504.398C338.551 495.522 335.998 493.449 328.303 489.602C323.04 486.973 317.36 485.383 311.902 483.229C276.991 469.457 240.917 456.732 205.295 444.91C198.414 442.629 183.862 435.963 177.082 437.979C174.613 438.709 173.264 440.411 172.013 442.566C168.449 448.707 166.561 456.187 164.223 462.788C155.249 488.124 144.424 513.153 136.349 538.832C135.559 541.345 135.352 544.136 134.07 546.594C135.754 547.352 137.511 547.276 139.253 547.927C160.065 555.663 180.482 564.373 201.313 572.219C202.334 572.606 203.129 573.388 204.156 573.772L297.545 607.32ZM303.434 649.736C303.462 647.455 303.52 645.038 303.259 642.772C302.602 637.105 300.064 623.177 298.359 617.964C297.549 615.486 296.147 613.768 293.838 612.505C250.642 597.062 207.323 581.467 164.571 564.95C155.103 561.291 144.124 555.654 134.446 553.124C129.288 551.776 126.853 552.902 122.392 555.166C115.682 558.574 108.053 563.008 101.492 566.822C99.8808 567.762 94.8153 570.478 94.0609 571.77C93.5642 572.619 94.0056 572.389 94.4894 572.656C98.1741 574.698 103.643 576.821 107.643 578.397C127.565 586.255 148.352 592.091 168.017 600.57C173.998 598.438 178.457 591.666 185.452 592.307C189.753 592.703 194.856 595.01 199.003 596.451C206.906 599.198 215.013 602.176 222.768 605.499C224.647 606.302 227.138 606.77 228.825 607.711C232.046 609.512 232.507 623.16 235.06 624.658L303.443 649.739L303.434 649.736ZM227.258 622.355C227.841 622.112 225.32 613.593 224.253 612.747C221.53 610.599 211.525 607.956 207.638 606.475C206.614 606.082 205.821 605.296 204.795 604.922C197.876 602.376 190.965 599.941 183.833 598.11L175.697 603.079L227.259 622.35L227.258 622.355ZM92.2289 578.248C90.6592 582.383 95.4528 584.361 98.5678 585.923C106.465 589.892 115.792 592.414 124.11 595.581C162.253 610.112 200.664 624.169 238.987 638.347C255.898 644.602 275.122 653.351 292.352 658.06C295.78 658.997 298.957 659.347 301.145 656.035L92.2289 578.248Z" fill="#2159D1"/>
<path d="M303.434 649.736L235.052 624.655C232.497 623.161 232.037 609.509 228.816 607.708C227.129 606.767 224.641 606.305 222.76 605.496C215.004 602.173 206.902 599.197 198.994 596.448C194.848 595.006 189.744 592.7 185.443 592.304C178.447 591.667 173.989 598.435 168.008 600.566C148.344 592.087 127.556 586.252 107.634 578.394C103.636 576.814 98.1669 574.691 94.4807 572.653C93.9968 572.386 93.5511 572.614 94.0522 571.767C94.8109 570.476 99.8721 567.759 101.483 566.819C108.044 563.004 115.674 558.571 122.384 555.163C126.845 552.898 129.279 551.773 134.437 553.121C144.119 555.652 155.094 561.288 164.562 564.947C207.314 581.464 250.631 597.063 293.83 612.502C296.138 613.765 297.541 615.483 298.351 617.961C300.055 623.174 302.595 637.097 303.25 642.769C303.512 645.035 303.458 647.454 303.425 649.733L303.434 649.736ZM133.81 559.393C133.102 559.173 130.996 558.824 130.277 558.87C128.438 558.981 125.834 561.604 127.037 563.466C128.24 565.329 129.453 564.595 131.071 565.152C145.048 569.97 158.829 575.646 172.53 581.081L288.648 622.583C291.463 619.648 288.345 616.193 285.17 615.14C236.969 597.087 187.744 581.296 139.899 562.471C137.94 561.699 135.855 560.035 133.814 559.395L133.81 559.393Z" fill="#FFFBB9"/>
<path d="M297.545 607.32L204.156 573.772C203.134 573.39 202.34 572.603 201.313 572.219C180.481 564.377 160.063 555.667 139.253 547.927C137.51 547.28 135.752 547.356 134.07 546.594C135.352 544.136 135.557 541.349 136.349 538.832C144.418 513.156 155.247 488.128 164.223 462.788C166.561 456.187 168.449 448.707 172.013 442.566C173.264 440.411 174.613 438.709 177.082 437.979C183.865 435.969 198.418 442.63 205.295 444.91C240.917 456.732 276.986 469.455 311.902 483.229C317.36 485.383 323.036 486.971 328.303 489.602C336 493.444 338.556 495.523 336.034 504.398C329.108 528.794 317.215 555.046 308.219 578.939C304.658 588.393 301.81 598.178 297.545 607.32ZM250.461 468.645C231.421 461.929 210.14 453.12 191.03 447.637C188.476 446.906 184.857 446.008 182.29 446.737C175.735 448.593 171.902 463.863 168.71 469.326C162.512 490.317 151.807 511.565 146.012 532.475C143.88 540.168 145.295 543.561 152.28 547.237C159.626 551.101 168.623 553.76 176.36 556.861C206.878 569.098 238.104 580.297 269.473 590.329C275.006 592.097 285.465 596.815 291.003 595.355C294.581 594.414 295.741 591.774 297.285 588.736C300.594 582.224 302.617 574.861 305.255 568.053C312.237 550.023 320.189 530.021 325.629 511.481C327.017 506.745 328.748 500.206 324.315 496.553C322.13 494.755 317.146 492.61 314.391 491.467C294.092 483.045 271.331 476.014 250.462 468.656L250.461 468.645Z" fill="#FFFBB9"/>
<path d="M92.2289 578.248L301.145 656.035C298.953 659.346 295.78 658.997 292.352 658.06C275.116 653.353 255.896 644.607 238.987 638.347C200.664 624.169 162.253 610.112 124.11 595.581C115.792 592.414 106.465 589.892 98.5679 585.923C95.4544 584.357 90.6592 582.382 92.2289 578.248Z" fill="#FFFBB9"/>
<path d="M227.258 622.355L175.695 603.084L183.832 598.115C190.964 599.946 197.874 602.381 204.794 604.927C205.818 605.305 206.611 606.091 207.637 606.479C211.523 607.96 221.533 610.604 224.251 612.751C225.323 613.598 227.844 622.118 227.256 622.359L227.258 622.355Z" fill="#FFFBB9"/>
<path d="M133.81 559.393C135.85 560.033 137.936 561.697 139.894 562.47C187.738 581.299 236.959 597.088 285.165 615.139C288.341 616.191 291.458 619.647 288.644 622.582L172.526 581.08C158.823 575.648 145.044 569.968 131.067 565.151C129.448 564.593 128.199 565.265 127.033 563.465C125.866 561.664 128.434 558.979 130.272 558.869C130.996 558.824 133.102 559.173 133.805 559.391L133.81 559.393Z" fill="#2159D1"/>
<path d="M250.461 468.645C271.328 476.008 294.09 483.035 314.39 491.457C317.145 492.6 322.129 494.745 324.314 496.543C328.747 500.196 327.016 506.735 325.628 511.47C320.188 530.011 312.236 550.013 305.254 568.043C302.615 574.85 300.593 582.214 297.284 588.726C295.738 591.768 294.579 594.404 291.002 595.345C285.464 596.805 275.003 592.091 269.472 590.319C238.102 580.287 206.881 569.089 176.359 556.85C168.622 553.75 159.624 551.091 152.279 547.227C145.294 543.551 143.879 540.157 146.01 532.465C151.806 511.555 162.508 490.301 168.709 469.316C171.901 463.852 175.733 448.583 182.289 446.727C184.86 446 188.479 446.897 191.029 447.627C210.139 453.11 231.424 461.921 250.46 468.635L250.461 468.645ZM183.739 452.497C174.924 465.794 170.693 482.105 165.16 497.088C160.514 509.672 154.663 522.299 151.388 535.361C150.264 539.842 152.278 540.763 155.966 542.605C165.269 547.241 175.905 550.553 185.633 554.296C214.995 565.592 245.367 576.828 275.42 586.077C277.656 586.763 287.787 590.685 289.397 589.651C290.145 589.168 293.709 582.153 294.278 580.829C302.792 561.137 312.308 535.372 318.521 514.819C319.105 512.895 321.641 502.857 321.033 501.704C320.556 500.79 317.651 499.245 316.602 498.73C294.454 487.889 265.286 480.442 241.668 472.243C224.607 466.322 206.535 458.376 189.413 453.421C188.465 453.144 184.312 452.216 183.734 452.496L183.739 452.497Z" fill="#2159D1"/>
<path d="M183.739 452.497C184.316 452.218 188.47 453.146 189.417 453.422C206.538 458.382 224.612 466.324 241.672 472.244C265.292 480.44 294.454 487.889 316.607 498.732C317.66 499.248 320.56 500.792 321.038 501.706C321.646 502.858 319.105 512.895 318.526 514.82C312.313 535.374 302.792 561.137 294.283 580.83C293.709 582.153 290.15 589.17 289.401 589.653C287.791 590.686 277.659 586.769 275.425 586.079C245.375 576.831 214.999 565.593 185.637 554.297C175.909 550.555 165.274 547.243 155.97 542.606C152.28 540.769 150.268 539.844 151.393 535.363C154.667 522.301 160.518 509.673 165.164 497.09C170.699 482.102 174.926 465.79 183.743 452.499L183.739 452.497ZM246.762 520.246C253.255 516.554 270.404 513.955 257.416 504.568C247.471 497.38 233.276 490.243 222.412 483.822C219.72 482.23 214.663 477.812 211.537 481.176C208.966 483.938 209.745 493.724 209.762 497.736C209.811 508.115 209.318 522.122 210.459 532.116C210.872 535.725 212.598 540.686 217.001 539.57C220.128 536.968 223.313 532.264 226.605 530.036C227.008 529.763 227.33 529.334 227.852 529.698C232.319 537.03 234.557 546.981 239.007 554.1C242.412 559.546 245.671 559.558 251.256 557.038C255.358 555.185 262.109 550.338 261.432 545.342C260.858 541.1 251.968 529.185 249.38 524.627C248.542 523.157 248.19 521.182 246.76 520.25L246.762 520.246Z" fill="#FFFBB9"/>
<path d="M246.762 520.246C248.186 521.181 248.544 523.152 249.381 524.623C251.97 529.181 260.861 541.091 261.434 545.337C262.11 550.333 255.353 555.184 251.258 557.034C245.673 559.554 242.409 559.54 239.009 554.096C234.559 546.977 232.319 537.03 227.854 529.694C227.332 529.329 227.01 529.759 226.607 530.032C223.314 532.26 220.129 536.964 217.002 539.565C212.6 540.682 210.874 535.721 210.46 532.112C209.32 522.118 209.813 508.11 209.764 497.732C209.746 493.72 208.969 483.93 211.538 481.172C214.663 477.812 219.724 482.232 222.413 483.817C233.277 490.239 247.478 497.373 257.417 504.563C270.406 513.95 253.261 516.551 246.764 520.242L246.762 520.246ZM254.461 509.753L215.652 486.464L215.841 531.023L216.756 531.293C220.188 527.612 226.197 519.932 231.727 523.91C236.241 533.176 239.023 543.568 245.044 552.004C246.855 553.407 254.518 547.703 255.02 546.526C255.521 545.35 254.353 543.583 253.76 542.441C250.167 535.537 244.767 528.587 240.846 521.772C238.382 513.656 248.145 513.159 253.333 510.812C253.908 510.552 254.361 510.537 254.457 509.751L254.461 509.753Z" fill="#2159D1"/>
<path d="M254.461 509.753C254.367 510.535 253.913 510.553 253.337 510.813C248.147 513.165 238.382 513.656 240.851 521.773C244.769 528.593 250.17 535.543 253.765 542.443C254.357 543.585 255.532 545.334 255.024 546.528C254.516 547.722 246.864 553.41 245.049 552.006C239.029 543.565 236.245 533.177 231.731 523.912C226.202 519.933 220.192 527.613 216.76 531.295L215.845 531.025L215.656 486.466L254.465 509.754L254.461 509.753Z" fill="#FFFBB9"/>
<path d="M819.374 180.995C806.309 185.801 793.808 192.308 780.586 196.729C774.71 198.695 769.391 199.931 763.183 199.006C733.411 194.544 727.084 153.048 752.545 138.675C746.92 127.383 746.538 116.381 752.643 105.36C757.352 96.8548 766.223 90.5562 775.852 88.8943C778.254 88.4821 780.765 88.8022 783.172 88.8701C781.565 74.4589 788.417 59.8637 799.07 50.3103C822.314 29.458 860.745 35.6956 875.84 62.8915C895.529 47.7895 924.383 56.275 932.282 79.9176C951.216 79.5243 963.503 99.221 957.124 116.691C953.898 125.528 948.335 130.278 939.895 134.157C927.269 139.953 913.408 143.253 900.736 149.023C904.864 158.021 907.569 168.383 911.81 177.242C914.034 181.889 915.788 184.112 921.221 182.663C923.708 181.999 932.138 178.89 934.112 177.652C935.26 176.933 934.937 173.784 935.415 172.155C938.191 162.651 951.346 159.783 957.61 167.931C967.814 181.216 946.181 194.91 936.759 182.63C926.828 185.613 915.161 195.113 908.015 182.684C903.454 174.756 901.473 164.467 897.535 155.976C896.798 154.392 895.535 153.049 895.149 151.218L861.57 164.413L877.134 204.018C884.541 202.886 892.154 207.981 892.79 215.657C893.131 219.762 892.164 223.044 889.011 225.784C874.255 238.605 857.476 217.885 872.064 206.204L855.978 166.611L824.122 179.129L836.556 210.77C836.656 211.024 836.93 213.972 836.928 214.5C836.882 223.841 821.774 227.457 815.023 230.463C816.116 234.864 814.384 238.675 810.792 241.284C805.411 245.193 800.193 246.016 794.964 241.536C780.754 229.378 801.87 210.977 812.796 225.364C818.222 221.15 832.665 220.762 830.569 211.015C830.316 209.827 829.322 206.272 828.945 205.312L819.387 180.99L819.374 180.995ZM782.369 94.8064C776.942 92.9834 766.916 98.404 762.86 101.956C754.107 109.63 751.762 124.377 756.981 134.636C758.539 137.701 761.615 138.878 757.804 142.204C754.433 145.149 752.126 145.752 749.011 149.789C733.725 169.582 748.291 198.556 773.556 192.395C794.377 187.319 815.433 174.736 835.912 168.005C868.597 153.194 905.719 143.556 938.123 128.382C956.335 119.854 959.198 95.2077 939.604 87.2578C935.715 85.6803 934.124 86.7924 930.573 86.697C925.843 86.5728 926.759 81.6955 925.456 78.3412C921.569 68.3489 908.292 60.8935 897.804 61.2033C893.117 61.3406 884.498 63.639 880.976 66.7277C878.844 68.5992 878.691 71.5865 875.862 72.3054C871.878 73.3196 871.358 67.3314 870.168 64.8471C864.61 53.2307 847.457 44.764 835.082 43.8521C811.7 42.132 790.619 59.9278 788.642 83.2122C788.456 85.3824 789.261 93.45 788.801 94.3413C788.259 95.3894 786.619 96.2125 785.469 96.3069C784.188 96.4125 783.217 95.0796 782.381 94.797L782.369 94.8064ZM944.085 169.872C940.773 171.814 939.179 177.748 942.599 180.256C946.019 182.763 949.886 182.397 952.596 178.936C957.496 172.687 950.205 166.274 944.083 169.868L944.085 169.872ZM798.744 227.482C796.932 228.661 795.709 231.736 796.118 233.851C796.701 236.877 801.089 239.278 804.109 238.568C813.742 236.308 808.298 221.253 798.744 227.482ZM886.259 220.132C887.648 217.32 887.124 213.227 884.466 211.32C878.283 206.881 869.011 214.217 873.589 220.722C874.542 222.072 877.553 224.358 879.279 224.033C881.237 223.666 885.354 221.953 886.254 220.134L886.259 220.132Z" fill="#2159D1"/>
<path d="M782.369 94.8064C783.204 95.0846 784.177 96.4219 785.457 96.3163C786.608 96.2219 788.248 95.3987 788.79 94.3507C789.25 93.4594 788.449 85.3901 788.631 83.2216C790.608 59.9371 811.689 42.1414 835.071 43.8615C847.444 44.769 864.598 53.2401 870.157 64.8565C871.347 67.3408 871.872 73.3316 875.851 72.3148C878.679 71.5959 878.832 68.6086 880.965 66.7371C884.487 63.6484 893.105 61.3499 897.793 61.2127C908.281 60.9028 921.557 68.3583 925.444 78.3506C926.747 81.7048 925.836 86.5805 930.562 86.7063C934.117 86.8001 935.702 85.6854 939.593 87.2672C959.187 95.2171 956.323 119.864 938.111 128.392C905.71 143.569 868.587 153.207 835.901 168.015C815.416 174.743 794.366 187.328 773.545 192.404C748.284 198.564 733.718 169.589 749 149.798C752.115 145.762 754.422 145.158 757.792 142.214C761.602 138.883 758.528 137.71 756.97 134.645C751.749 124.382 754.099 109.633 762.849 101.965C766.903 98.4091 776.929 92.9885 782.358 94.8158L782.369 94.8064Z" fill="#FFFBB9"/>
<path d="M886.259 220.132C885.359 221.952 881.237 223.666 879.283 224.031C877.557 224.356 874.541 222.068 873.594 220.721C869.015 214.216 878.282 206.877 884.47 211.318C887.128 213.226 887.648 217.32 886.263 220.13L886.259 220.132Z" fill="#FFFBB9"/>
<path d="M944.084 169.872C950.211 166.277 957.496 172.687 952.598 178.941C949.888 182.401 946.105 182.829 942.601 180.26C939.096 177.691 940.774 171.819 944.086 169.876L944.084 169.872Z" fill="#FFFBB9"/>
<path d="M798.744 227.482C808.3 221.257 813.742 236.308 804.109 238.568C801.089 239.278 796.701 236.877 796.118 233.851C795.71 231.736 796.936 228.66 798.744 227.482Z" fill="#FFFBB9"/>
<path d="M810.399 453.225C832.926 445.95 855.808 439.421 878.367 432.432C899.16 425.991 920.541 417.92 941.419 412.311C946.297 411 955.687 408.719 960.468 409.648C968.573 411.227 971.717 420.842 974.269 427.821C991.321 474.423 1003.25 524.201 1019.89 571.093C1022.1 580.331 1019.74 588.839 1010.5 592.747C1002.84 595.987 993.867 598.32 985.942 601.038C939.153 617.107 890.163 632.59 842.599 646.196C829.128 650.049 812.749 658.492 805.641 640.771C794.652 607.223 784.416 573.339 773.979 539.693C768.862 523.197 761.359 504.572 757.513 488.103C753.667 471.635 766.644 468.624 779.241 463.991C789.47 460.229 800.024 456.572 810.398 453.221L810.399 453.225ZM971.385 440.166L966.823 425.842C966.36 424.388 964.449 420.778 963.549 419.356C960.329 414.289 956.715 414.707 951.302 415.984C944.971 417.476 938.238 420.295 931.901 422.177C906.215 429.792 880.681 438.098 855.073 446.155C831.738 453.498 808.025 460.068 785.003 468.442C779.91 470.297 767.492 473.587 764.9 478.3C762.774 482.156 764.049 484.483 764.872 488.226C764.997 488.803 764.783 489.531 764.829 489.676L769.39 504C794.403 496.254 819.076 487.805 843.977 479.784C878.661 468.614 914.045 457.934 949.116 447.276C956.568 445.01 963.938 442.435 971.385 440.166ZM770.914 510.311L811.963 639.224C812.32 640.344 815.769 644.119 816.98 644.675C819.223 645.698 823.669 645.268 826.067 644.704C833.634 642.92 841.715 640.187 849.114 638.011C897.308 623.839 945.358 608.5 992.978 592.526C998.293 590.741 1006.51 588.779 1010.88 585.579C1018.48 580.007 1011.25 569.324 1010.66 561.902L973.654 445.754C942.506 455.468 911.317 465.084 880.144 474.583C847.43 484.548 814.883 495.281 782.618 506.608C778.763 507.962 774.769 508.972 770.915 510.315L770.914 510.311Z" fill="#2159D1"/>
<path d="M770.914 510.311C774.769 508.972 778.766 507.956 782.617 506.604C814.882 495.276 847.429 484.544 880.143 474.578C911.316 465.079 942.5 455.465 973.653 445.749L1010.66 561.898C1011.25 569.319 1018.48 580.003 1010.88 585.575C1006.51 588.775 998.292 590.737 992.977 592.521C945.361 608.494 897.307 623.835 849.113 638.006C841.714 640.182 833.633 642.916 826.065 644.699C823.668 645.264 819.224 645.698 816.979 644.67C815.764 644.116 812.32 640.344 811.962 639.22L770.914 510.311ZM870.791 496.584L868.311 496.753L795.563 519.927C792.816 520.875 792.725 524.156 794.44 526.051C814.703 519.959 834.751 512.978 855.009 506.809C859.753 505.366 865.095 504.733 869.69 502.653C872.372 501.44 872.955 498.638 870.787 496.586L870.791 496.584ZM937.046 495.195C935.452 491.426 933.245 483.901 929.2 482.233C923.695 479.962 908.738 486.132 904.342 490.008C900.882 493.061 901.942 498.524 902.863 502.498C903.326 504.501 905.192 506.125 903.384 507.579C901.884 508.785 898.804 506.033 897.004 505.349C891.539 503.278 889.198 504.495 885.448 508.587C882.226 512.098 875.024 523.138 876.504 527.895C877.431 530.867 881.652 533.42 884.174 535.151C885.515 536.069 888.245 536.656 888.545 538.512C888.641 539.103 888.308 541.077 887.79 541.461C886.193 542.649 880.076 543.912 877.563 545.382C874.138 547.385 874.691 554.656 875.45 557.909C876.493 562.387 880.778 571.668 885.571 573.045C891.245 574.675 896.225 567.434 900.28 573.735C897.233 577.763 893.448 580.114 895.996 585.647C899.647 593.576 918.357 604.011 924.333 593.492C925.813 590.885 924.841 587.345 928.449 586.953C933.399 586.416 932.752 591.913 934.474 595.248C935.979 598.162 940.096 600.098 943.295 599.55C948.695 598.627 956.719 596.281 961.079 592.975C964.258 590.565 965.223 586.734 964.404 582.912C963.65 579.385 960.87 576.936 965.145 574.691C971.662 580.217 975.18 584.102 982.351 576.726C987.086 571.855 994.796 558.109 987.346 552.792C985.769 551.668 980.734 550.81 980.336 548.845C980.19 548.124 980.477 543.616 980.865 543.172C984.706 543.041 989.592 541.995 991.787 538.524C995.081 533.32 990.431 517.131 985.372 513.879C979.465 510.085 971.906 518.788 968.704 511.885C974.706 505.096 976.228 499.98 969.107 493.35C963.918 488.517 952.488 481.099 946.532 488.248C943.307 492.114 944.493 497.013 937.049 495.19L937.046 495.195ZM859.01 523.641C858.389 523.338 853.904 524.223 852.866 524.485C836.14 528.743 819.347 536.023 802.582 540.492C797.995 541.802 799.186 546.671 803.539 546.546L858.784 528.679C859.541 527.52 860.505 524.373 859.004 523.638L859.01 523.641ZM812.026 560.47C809.448 561.552 805.261 563.128 807.643 566.37C809.955 567.915 817.262 563.744 820.276 564.032C830.827 559.604 844.464 557.689 854.677 553.068C859.828 550.738 854.429 546.482 850.635 548.044C838.273 552.728 824.127 555.393 812.027 560.474L812.026 560.47ZM822.304 589.715C818.83 591.321 816.947 593.348 816.902 597.231C816.823 604.164 820.931 618.908 825.772 623.915C828.521 626.753 831.922 626.049 835.415 625.203C845.864 622.682 858.541 618.893 868.759 615.601C875.883 613.308 876.932 609.134 875.876 602.31C875.12 597.42 871.514 585.914 868.826 581.94C864.604 575.692 859.73 578.526 854.017 579.961C844.847 582.26 830.721 585.826 822.304 589.715Z" fill="#FFFBB9"/>
<path d="M971.385 440.166C963.938 442.435 956.569 445.01 949.116 447.276C914.045 457.934 878.661 468.614 843.977 479.784C819.076 487.805 794.399 496.255 769.39 504L764.829 489.676C764.784 489.535 764.997 488.803 764.872 488.226C764.048 484.479 762.774 482.156 764.901 478.3C767.493 473.591 779.91 470.297 785.003 468.442C808.025 460.068 831.738 453.498 855.073 446.155C880.681 438.098 906.215 429.792 931.901 422.177C938.239 420.299 944.971 417.476 951.302 415.984C956.711 414.708 960.331 414.294 963.55 419.356C964.453 420.777 966.36 424.388 966.824 425.842L971.385 440.166ZM779.982 481.318C776.99 483.353 778.995 493.874 786.034 490.337C793.177 486.747 786.184 477.09 779.982 481.318ZM801.274 476.489C796.673 478.915 798.479 486.461 804.613 485.406C811.987 484.141 810.603 471.562 801.274 476.489ZM819.433 471.702C816.71 476.991 828.034 482.157 829.638 474.588C831.121 467.597 821.397 467.883 819.433 471.702Z" fill="#FFFBB9"/>
<path d="M937.045 495.195C944.49 497.019 943.304 492.12 946.529 488.254C952.486 481.109 963.915 488.523 969.104 493.356C976.225 499.986 974.702 505.097 968.7 511.891C971.903 518.793 979.462 510.091 985.368 513.884C990.433 517.136 995.078 533.326 991.784 538.53C989.588 542.001 984.705 543.051 980.862 543.178C980.474 543.621 980.186 548.13 980.333 548.85C980.731 550.816 985.77 551.672 987.342 552.798C994.791 558.11 987.082 571.861 982.348 576.732C975.178 584.112 971.659 580.223 965.142 574.697C960.862 576.943 963.645 579.387 964.401 582.918C965.215 586.741 964.255 590.571 961.076 592.981C956.715 596.282 948.692 598.633 943.292 599.556C940.093 600.104 935.976 598.168 934.471 595.254C932.749 591.919 933.396 586.422 928.446 586.959C924.838 587.351 925.81 590.891 924.329 593.498C918.354 604.017 899.644 593.582 895.993 585.653C893.444 580.12 897.231 577.773 900.277 573.74C896.219 567.445 891.242 574.681 885.568 573.051C880.775 571.674 876.49 562.393 875.447 557.915C874.692 554.66 874.135 547.391 877.56 545.388C880.073 543.918 886.189 542.655 887.787 541.467C888.301 541.084 888.633 539.11 888.542 538.518C888.242 536.662 885.512 536.075 884.171 535.157C881.649 533.426 877.428 530.872 876.501 527.901C875.022 523.149 882.223 512.104 885.445 508.592C889.195 504.5 891.534 503.28 897 505.355C898.801 506.039 901.881 508.791 903.38 507.585C905.189 506.13 903.322 504.506 902.859 502.503C901.943 498.528 900.879 493.067 904.338 490.014C908.735 486.138 923.692 479.968 929.196 482.239C933.242 483.907 935.445 491.433 937.042 495.201L937.045 495.195ZM928.377 488.461C925.981 486.501 910.253 492.582 908.281 494.986C906.019 497.745 911.638 506.154 911.298 508.7C911.156 509.764 907.153 513.655 906.127 514.137C901.637 516.256 895.302 508.604 891.806 510.751C891.121 511.173 885.715 519.487 884.933 520.842C883.992 522.477 882.987 524.365 882.488 526.198C882.71 528.526 892.76 532.344 894.056 534.553C895.08 536.29 894.802 544.063 893.465 545.503C891.764 547.341 884.16 549.024 881.585 550.407C878.782 552.319 883.418 564.988 886.355 566.543C888.8 567.837 895.443 563.193 897.897 563.445C899.086 563.567 904.685 569.274 905.376 570.408C906.018 571.466 906.126 573.907 905.839 575.095C905.278 577.434 900.934 580.303 901.032 581.83C901.278 585.649 914.2 593.486 918.093 592.115C921.502 590.913 920.337 581.813 925.842 580.609C927.086 580.339 933.692 580.672 934.718 581.244C938.428 583.29 936.863 593.88 941.753 593.275C947.814 591.243 954.148 591.012 959.207 586.669C959.451 582.115 953.728 577.132 957.422 573.043C957.834 572.587 962.65 568.335 962.983 568.176C967.575 565.98 972.929 575.843 975.381 574.596C977.194 573.674 985.427 560.121 985.139 558.271C980.809 554.767 974.748 557.226 974.041 549.975C973.937 548.916 974.448 541.268 974.728 540.393C976.403 535.166 982.441 538.35 985.999 535.911C988.974 533.867 985.241 521.41 982.392 519.308C976.496 518.904 972.439 524.7 967.219 519.814C964.322 517.106 961.839 513.911 963.239 509.786C964.276 506.732 969.525 502.94 967.373 499.582C965.695 496.965 955.012 490.703 951.997 491.6C949.388 493.27 947.34 500.252 945.005 501.471C943.777 502.114 935.926 502.352 934.536 501.844C930.239 500.27 931.622 491.122 928.38 488.47L928.377 488.461Z" fill="#2159D1"/>
<path d="M822.304 589.715C830.716 585.827 844.847 582.26 854.017 579.961C859.731 578.53 864.604 575.692 868.826 581.94C871.514 585.914 875.121 597.425 875.876 602.31C876.932 609.134 875.881 613.303 868.759 615.601C858.54 618.893 845.863 622.678 835.415 625.203C831.922 626.049 828.52 626.753 825.772 623.915C820.932 618.913 816.823 604.164 816.901 597.231C816.947 593.348 818.83 591.321 822.304 589.715ZM870.589 608.605C870.419 603.558 869.429 598.087 867.738 593.295C867.073 591.405 865.192 586.883 864.097 585.382C863.003 583.881 861.932 583.596 860.074 583.906C852.713 585.134 845.918 588.215 838.969 590.602C833.864 592.359 828.624 593.755 823.515 595.499C822.946 595.68 822.871 596.068 822.687 596.544C821.75 598.983 824.207 608.084 825.2 610.763C825.868 612.555 828.996 619.864 830.65 620.163L870.585 608.607L870.589 608.605Z" fill="#2159D1"/>
<path d="M870.791 496.584C872.964 498.635 872.377 501.443 869.694 502.652C865.1 504.731 859.753 505.366 855.013 506.807C834.755 512.976 814.707 519.957 794.445 526.05C792.728 524.15 792.82 520.873 795.567 519.926L868.316 496.751L870.796 496.583L870.791 496.584Z" fill="#2159D1"/>
<path d="M859.009 523.641C860.509 524.372 859.542 527.524 858.789 528.682L803.545 546.55C799.191 546.674 798 541.806 802.588 540.495C819.357 536.024 836.15 528.745 852.872 524.488C853.91 524.226 858.393 523.337 859.015 523.644L859.009 523.641Z" fill="#2159D1"/>
<path d="M812.026 560.47C824.124 555.384 838.272 552.724 850.634 548.04C854.428 546.478 859.826 550.734 854.675 553.063C844.467 557.683 830.827 559.604 820.275 564.027C817.265 563.738 809.959 567.914 807.641 566.366C805.255 563.125 809.447 561.548 812.024 560.465L812.026 560.47Z" fill="#2159D1"/>
<path d="M779.982 481.317C786.186 477.095 793.177 486.747 786.034 490.337C778.991 493.875 776.99 483.353 779.982 481.317Z" fill="#2159D1"/>
<path d="M801.274 476.489C810.603 471.562 811.991 484.139 804.613 485.406C798.479 486.461 796.673 478.915 801.274 476.489Z" fill="#2159D1"/>
<path d="M819.433 471.702C821.397 467.883 831.121 467.597 829.638 474.588C828.03 482.158 816.71 476.991 819.433 471.702Z" fill="#2159D1"/>
<path d="M928.377 488.461C931.619 491.113 930.237 500.261 934.534 501.835C935.924 502.344 943.77 502.107 945.002 501.462C947.337 500.243 949.39 493.26 951.994 491.591C955.015 490.697 965.698 496.96 967.37 499.573C969.522 502.931 964.274 506.724 963.236 509.777C961.835 513.898 964.318 517.092 967.216 519.805C972.437 524.691 976.489 518.896 982.389 519.299C985.236 521.397 988.976 533.856 985.996 535.902C982.439 538.345 976.4 535.157 974.725 540.384C974.445 541.26 973.934 548.908 974.039 549.967C974.745 557.217 980.807 554.758 985.136 558.262C985.43 560.115 977.196 573.664 975.379 574.587C972.926 575.834 967.569 565.977 962.98 568.167C962.647 568.326 957.832 572.578 957.419 573.035C953.726 577.123 959.448 582.106 959.204 586.66C954.146 591.003 947.806 591.231 941.75 593.266C936.861 593.872 938.421 583.283 934.716 581.235C933.69 580.668 927.083 580.33 925.839 580.6C920.334 581.805 921.499 590.904 918.091 592.106C914.197 593.477 901.275 585.641 901.03 581.821C900.932 580.294 905.271 577.427 905.837 575.086C906.123 573.898 906.016 571.457 905.373 570.399C904.682 569.265 899.083 563.558 897.894 563.437C895.44 563.184 888.798 567.828 886.352 566.534C883.415 564.979 878.78 552.315 881.583 550.398C884.157 549.015 891.763 547.336 893.462 545.494C894.798 544.049 895.077 536.281 894.053 534.544C892.753 532.337 882.707 528.517 882.485 526.189C882.981 524.362 883.986 522.474 884.93 520.833C885.712 519.478 891.118 511.164 891.804 510.742C895.301 508.6 901.639 516.246 906.124 514.128C907.146 513.648 911.154 509.755 911.295 508.691C911.635 506.146 906.017 497.741 908.278 494.977C910.25 492.573 925.983 486.49 928.374 488.452L928.377 488.461ZM923.478 517.209C912.928 521.942 907.124 535.377 909.62 546.495C915.047 570.688 948.084 573.813 957.393 550.942C966.103 529.543 944.907 507.599 923.484 517.212L923.478 517.209Z" fill="#FFFBB9"/>
<path d="M870.589 608.605L830.654 620.161C829 619.858 825.873 612.553 825.205 610.761C824.211 608.083 821.756 598.986 822.692 596.543C822.874 596.062 822.946 595.68 823.519 595.498C828.629 593.754 833.868 592.357 838.974 590.601C845.921 588.209 852.716 585.128 860.079 583.905C861.936 583.595 862.968 583.834 864.102 585.381C865.235 586.928 867.076 591.399 867.743 593.294C869.435 598.09 870.423 603.556 870.594 608.604L870.589 608.605Z" fill="#FFFBB9"/>
<path d="M923.478 517.209C944.908 507.599 966.097 529.54 957.388 550.939C948.079 573.81 915.041 570.685 909.614 546.492C907.119 535.379 912.922 521.939 923.472 517.206L923.478 517.209ZM926.189 522.656C906.308 531.749 915.362 564.893 937.076 560.309C966.118 554.178 951.578 511.048 926.189 522.656Z" fill="#2159D1"/>
<path d="M926.189 522.656C951.574 511.049 966.118 554.178 937.076 560.309C915.362 564.893 906.308 531.749 926.189 522.656Z" fill="#FFFBB9"/>
</svg>
